<svg xmlns="http://www.w3.org/2000/svg" xmlns:xlink="http://www.w3.org/1999/xlink" xmlns:inkscape="http://www.inkscape.org/namespaces/inkscape" version="1.1" width="1080" height="1080" viewBox="0 0 1080 1080">
<defs>
<clipPath id="clip_1">
<path transform="matrix(1,0,0,-1,0,1080)" d="M0 1080H1080V0H0Z"/>
</clipPath>
</defs>
<g inkscape:groupmode="layer" inkscape:label="Layer 1">
<path transform="matrix(1,0,0,-1,395.2626,622.037)" d="M0 0V254.551H-9.502V-9.502H10.499V0Z" fill="#179daf"/>
<path transform="matrix(1,0,0,-1,385.7609,324.3954)" d="M0 0V-19.336H9.502V-9.502H264.718V0Z" fill="#179daf"/>
<path transform="matrix(1,0,0,-1,684.7562,622.037)" d="M0 0H-255.24V-9.502H9.502V9.834H0Z" fill="#179daf"/>
<path transform="matrix(1,0,0,-1,674.2331,324.3954)" d="M0 0V-9.502H10.523V-264.053H20.025V0Z" fill="#179daf"/>
<path transform="matrix(1,0,0,-1,657.6056,638.6461)" d="M0 0V-2.51H-235.211V43.061H-255.205V33.583H-244.732V-11.988H9.521V0ZM-235.211 278.272V297.617H-244.732V287.793H-290.26V33.583H-278.965V43.061H-280.739V278.272ZM43.796 287.793V278.272H45.571V43.061H0V23.716H9.521V33.583H55.049V287.793ZM9.521 287.793V333.364H-244.732V321.376H-235.211V323.843H0V278.272H20.037V287.793Z" fill="#034587"/>
<g clip-path="url(#clip_1)">
<path transform="matrix(1,0,0,-1,522.4973,570.8344)" d="M0 0V-39.365L-37.892-2.127C-47.334 7.157-47.284 22.406-37.769 31.618L1.317 69.501C10.506 78.408 25.107 78.408 34.296 69.5L73.376 31.618C82.89 22.406 82.948 7.157 73.498-2.127L35.614-39.365V0L49.677 14.623 17.807 45.178-14.063 14.623Z" fill="#034587"/>
<path transform="matrix(1,0,0,-1,446.9356,461.08729)" d="M0 0H-39.365L-2.127 37.892C7.157 47.334 22.406 47.284 31.618 37.769L69.501-1.317C78.408-10.506 78.408-25.107 69.5-34.296L31.618-73.376C22.406-82.89 7.157-82.948-2.127-73.498L-39.365-35.614H0L14.623-49.677 45.178-17.807 14.623 14.063Z" fill="#179daf"/>
<path transform="matrix(1,0,0,-1,557.5027,385.08198)" d="M0 0V39.365L37.892 2.127C47.334-7.157 47.284-22.406 37.769-31.618L-1.317-69.501C-10.506-78.408-25.107-78.408-34.296-69.5L-73.376-31.618C-82.89-22.406-82.948-7.157-73.498 2.127L-35.614 39.365V0L-49.677-14.623-17.807-45.178 14.063-14.623Z" fill="#034587"/>
<path transform="matrix(1,0,0,-1,633.0644,494.82923)" d="M0 0H39.365L2.127-37.892C-7.157-47.334-22.406-47.284-31.618-37.769L-69.501 1.317C-78.408 10.506-78.408 25.107-69.5 34.296L-31.618 73.376C-22.406 82.89-7.157 82.948 2.127 73.498L39.365 35.614H0L-14.623 49.677-45.178 17.807-14.623-14.063Z" fill="#179daf"/>
<path transform="matrix(1,0,0,-1,185.5804,771.778)" d="M0 0H-10.312V12.632H-13.935V.747C-13.935-.699-13.649-1.668-13.093-2.177-12.553-2.685-11.536-2.939-10.074-2.939H-.238C1.224-2.939 2.24-2.685 2.797-2.177 3.353-1.668 3.623-.699 3.623 .747V12.632H0Z" fill="#034587"/>
<path transform="matrix(1,0,0,-1,230.2771,767.329)" d="M0 0C0-.334 .048-1.223 .159-2.669-.254-2.209-.842-1.652-1.621-.985L-12.568 8.183H-15.047V-7.388H-11.79V1.128C-11.79 1.7-11.838 2.495-11.933 3.512-11.552 3.067-11.123 2.638-10.646 2.24L.794-7.388H3.257V8.183H0Z" fill="#034587"/>
<path transform="matrix(1,0,0,-1,263.184,759.146)" d="M0 0H-3.623V-15.572H11.679V-12.632H0Z" fill="#034587"/>
<path transform="matrix(1,0,0,-1,0,1080)" d="M312.918 308.222H300.985V318.073H312.918ZM312.679 320.854H301.223C299.745 320.854 298.744 320.6 298.188 320.091 297.632 319.599 297.362 318.614 297.362 317.168V308.969C297.362 307.523 297.632 306.554 298.188 306.045 298.744 305.537 299.745 305.282 301.223 305.282H312.679C314.141 305.282 315.158 305.537 315.714 306.045 316.27 306.554 316.54 307.523 316.54 308.969V317.168C316.54 318.614 316.27 319.599 315.714 320.091 315.158 320.6 314.141 320.854 312.679 320.854" fill="#034587"/>
<path transform="matrix(1,0,0,-1,358.9489,764.31)" d="M0 0C0 2.082-.143 3.369-.429 3.861-.858 4.735-2.018 5.164-3.861 5.164H-13.156C-14.618 5.164-15.635 4.91-16.191 4.401-16.731 3.909-17.017 2.924-17.017 1.478V-6.721C-17.017-8.167-16.731-9.136-16.191-9.645-15.635-10.153-14.618-10.408-13.156-10.408H-3.861C-2.399-10.408-1.382-10.153-.826-9.645-.286-9.136 0-8.167 0-6.721V-4.878L-3.623-4.131V-7.468H-13.395V2.383H-3.623V-.572Z" fill="#034587"/>
<path transform="matrix(1,0,0,-1,402.0409,759.146)" d="M0 0H-5.244L-13.871-6.483V0H-17.526V-15.572H-13.871V-8.723L-4.544-15.572H1.271L-10.312-7.325Z" fill="#034587"/>
<path transform="matrix(1,0,0,-1,462.754,765.12039)" d="M0 0-5.339 5.974H-10.153L-2.081-2.622V-9.597H1.573V-2.526L9.629 5.974H5.371Z" fill="#034587"/>
<path transform="matrix(1,0,0,-1,0,1080)" d="M509.357 308.222H497.408V318.073H509.357ZM509.119 320.854H497.647C496.185 320.854 495.168 320.6 494.628 320.091 494.072 319.599 493.802 318.614 493.802 317.168V308.969C493.802 307.523 494.072 306.554 494.628 306.045 495.168 305.537 496.185 305.282 497.647 305.282H509.119C510.581 305.282 511.598 305.537 512.138 306.045 512.694 306.554 512.98 307.523 512.98 308.969V317.168C512.98 318.614 512.694 319.599 512.138 320.091 511.598 320.6 510.581 320.854 509.119 320.854" fill="#034587"/>
<path transform="matrix(1,0,0,-1,552.64,771.778)" d="M0 0H-10.312V12.632H-13.935V.747C-13.935-.699-13.665-1.668-13.109-2.177-12.553-2.685-11.552-2.939-10.074-2.939H-.238C1.224-2.939 2.24-2.685 2.781-2.177 3.337-1.668 3.623-.699 3.623 .747V12.632H0Z" fill="#034587"/>
<path transform="matrix(1,0,0,-1,585.8646,766.169)" d="M0 0V4.338H8.151C8.707 4.338 9.105 4.274 9.327 4.131 9.629 3.956 9.788 3.623 9.788 3.098V1.223C9.788 .699 9.629 .365 9.327 .207 9.105 .064 8.707 0 8.151 0ZM11.472-2.447C12.68-2.082 13.284-1.16 13.284 .35V4.004C13.284 6.022 12.108 7.023 9.788 7.023H-3.543V-8.548H0V-2.654H3.448L9.724-8.548H14.904L7.722-2.654C9.756-2.654 11.011-2.59 11.472-2.447" fill="#034587"/>
<path transform="matrix(1,0,0,-1,667.4881,770.9359)" d="M0 0C-1.001-.572-2.622-.842-4.83-.842H-9.502V9.009H-3.083C.349 9.009 2.05 7.388 2.05 4.163 2.05 2.145 1.366 .763 0 0M3.225 9.978C1.7 11.186-.413 11.79-3.114 11.79H-13.125V-3.782H-4.036C-1.081-3.782 1.049-3.369 2.352-2.574 4.64-1.144 5.784 1.08 5.784 4.099 5.784 6.689 4.942 8.66 3.225 9.978" fill="#034587"/>
<path transform="matrix(1,0,0,-1,701.6343,767.9328)" d="M0 0H7.166V2.654H0V6.133H12.298V8.787H-3.623V-6.785H12.457V-3.845H0Z" fill="#034587"/>
<path transform="matrix(1,0,0,-1,751.8763,765.2157)" d="M0 0H-9.708V3.353H.477V1.573L3.686 2.336C3.686 3.798 3.4 4.783 2.86 5.291 2.32 5.815 1.303 6.07-.175 6.07H-9.025C-10.487 6.07-11.504 5.815-12.044 5.307-12.6 4.815-12.886 3.829-12.886 2.383V.667C-12.886-.779-12.6-1.748-12.044-2.256-11.504-2.765-10.487-3.019-9.025-3.019H.699V-6.562H-10.312V-4.735L-13.506-5.387C-13.506-7.007-13.268-8.088-12.759-8.644-12.251-9.216-11.202-9.502-9.629-9.502H0C1.462-9.502 2.479-9.248 3.051-8.739 3.607-8.231 3.893-7.261 3.893-5.815V-3.67C3.893-2.225 3.607-1.255 3.051-.747 2.479-.254 1.462 0 0 0" fill="#034587"/>
<path transform="matrix(1,0,0,-1,777.8394,761.92666)" d="M0 0H7.15V-12.791H10.773V0H17.955V2.781H0Z" fill="#034587"/>
<path transform="matrix(1,0,0,-1,0,1080)" d="M818.326 305.282H821.933V320.854H818.326Z" fill="#034587"/>
<path transform="matrix(1,0,0,-1,863.0222,767.329)" d="M0 0C0-.334 .048-1.223 .143-2.669-.254-2.209-.858-1.652-1.637-.985L-12.584 8.183H-15.063V-7.388H-11.806V1.128C-11.806 1.7-11.853 2.495-11.949 3.512-11.568 3.067-11.138 2.638-10.646 2.24L.779-7.388H3.257V8.183H0Z" fill="#034587"/>
<path transform="matrix(1,0,0,-1,898.7255,765.12039)" d="M0 0-5.339 5.974H-10.169L-2.082-2.622V-9.597H1.573V-2.526L9.629 5.974H5.371Z" fill="#034587"/>
<path transform="matrix(1,0,0,-1,220.2763,739.3876)" d="M0 0C.801 2.152 1.203 4.362 1.203 6.626V15.388H-15.552V9.035C-15.552 7.867-15.734 6.881-16.099 6.078-16.466 5.275-17.013 4.636-17.742 4.162-18.474 3.687-19.329 3.34-20.315 3.122-21.301 2.903-22.343 2.793-23.437 2.793-24.605 2.793-25.682 2.903-26.668 3.122-27.653 3.34-28.494 3.687-29.186 4.162-29.881 4.636-30.411 5.275-30.776 6.078-31.14 6.881-31.323 7.867-31.323 9.035V44.299C-31.323 45.466-31.14 46.452-30.776 47.256-30.411 48.058-29.881 48.697-29.186 49.172-28.494 49.647-27.653 49.994-26.668 50.213-25.682 50.431-24.605 50.541-23.437 50.541-22.343 50.541-21.301 50.431-20.315 50.213-19.329 49.994-18.474 49.647-17.742 49.172-17.013 48.697-16.466 48.058-16.099 47.256-15.734 46.452-15.552 45.466-15.552 44.299V39.59H1.203V46.708C1.203 48.97 .801 51.179 0 53.334-.806 55.487-2.173 57.423-4.108 59.139-6.042 60.853-8.598 62.221-11.774 63.245-14.95 64.267-18.91 64.778-23.657 64.778-28.329 64.778-32.271 64.267-35.485 63.245-38.698 62.221-41.271 60.835-43.205 59.083-45.14 57.331-46.527 55.396-47.367 53.279-48.208 51.161-48.626 48.97-48.626 46.708V6.626C-48.626 4.362-48.208 2.172-47.367 .055-46.527-2.064-45.14-3.997-43.205-5.749-41.271-7.501-38.698-8.89-35.485-9.911-32.271-10.932-28.329-11.444-23.657-11.444-18.91-11.444-14.95-10.932-11.774-9.911-8.598-8.89-6.042-7.521-4.108-5.804-2.173-4.089-.806-2.154 0 0" fill="#179daf"/>
<path transform="matrix(1,0,0,-1,264.5186,701.7696)" d="M0 0C0-1.462-.397-2.669-1.208-3.607-2.018-4.56-3.051-5.259-4.322-5.688-5.609-6.133-7.055-6.356-8.644-6.356H-16.207V12.044H-8.644C-7.563 12.044-6.483 11.933-5.418 11.726-4.37 11.504-3.416 11.138-2.574 10.63-1.732 10.106-1.096 9.47-.651 8.707-.222 7.945 0 6.975 0 5.8ZM14.571-11.123C16.239-8.374 17.081-5.482 17.081-2.415V8.215C17.081 10.471 16.62 12.68 15.715 14.841 14.793 16.986 13.347 18.924 11.329 20.64 9.327 22.356 6.689 23.723 3.448 24.756 .207 25.773-3.829 26.281-8.644 26.281H-33.511V-48.192H-16.207V-20.481H-10.264L-.651-48.192H17.733L6.848-17.637C10.36-15.921 12.95-13.744 14.571-11.123" fill="#179daf"/>
<path transform="matrix(1,0,0,-1,312.0487,704.9452)" d="M0 0-9.527 29.46H-28.363L-8.652-19.274V-45.01H8.652V-17.193L28.255 29.46H11.281Z" fill="#179daf"/>
<path transform="matrix(1,0,0,-1,391.1724,739.3876)" d="M0 0C.912 2.152 1.368 4.362 1.368 6.626V15.059C1.368 17.687 .838 20.023-.219 22.067-1.279 24.111-2.723 25.846-4.546 27.269-6.373 28.693-8.452 29.879-10.788 30.829L-28.092 37.838C-28.531 38.129-29.024 38.476-29.571 38.878-30.118 39.278-30.556 39.809-30.884 40.466-31.212 41.123-31.377 41.926-31.377 42.875V45.066C-31.377 46.161-31.177 47.073-30.776 47.803-30.374 48.533-29.844 49.154-29.186 49.665-28.531 50.175-27.727 50.541-26.776 50.761-25.83 50.98-24.844 51.089-23.822 51.089-22.725 51.089-21.685 50.98-20.699 50.761-19.714 50.541-18.893 50.175-18.235 49.665-17.577 49.154-17.084 48.533-16.757 47.803-16.429 47.073-16.264 46.161-16.264 45.066V40.576H.601V46.708C.601 48.97 .2 51.179-.604 53.334-1.407 55.487-2.723 57.423-4.546 59.139-6.373 60.853-8.854 62.221-11.993 63.245-15.133 64.267-19.039 64.778-23.711 64.778-28.457 64.778-32.417 64.267-35.593 63.245-38.77 62.221-41.251 60.853-43.04 59.139-44.829 57.423-46.106 55.487-46.874 53.334-47.641 51.179-48.023 48.97-48.023 46.708V39.7C-48.023 37.728-47.641 35.793-46.874 33.895-46.106 31.995-45.031 30.336-43.644 28.913-42.256 27.488-40.65 26.41-38.824 25.682L-23.711 19.002C-22.397 18.416-21.121 17.814-19.879 17.194-18.637 16.573-17.634 15.825-16.865 14.949-16.099 14.073-15.717 13.014-15.717 11.773V8.378C-15.717 7.283-15.936 6.353-16.372 5.585-16.811 4.819-17.415 4.179-18.181 3.669-18.947 3.158-19.862 2.793-20.919 2.574-21.978 2.355-23.053 2.245-24.149 2.245-25.391 2.245-26.503 2.355-27.488 2.574-28.474 2.793-29.371 3.158-30.172 3.669-30.978 4.179-31.579 4.819-31.978 5.585-32.382 6.353-32.582 7.283-32.582 8.378V15.935H-49.447V6.626C-49.447 4.362-49.008 2.152-48.134 0-47.256-2.154-45.832-4.089-43.861-5.804-41.889-7.521-39.282-8.89-36.032-9.911-32.784-10.932-28.787-11.444-24.038-11.444-19.369-11.444-15.406-10.932-12.156-9.911-8.908-8.89-6.299-7.521-4.327-5.804-2.356-4.089-.914-2.154 0 0" fill="#179daf"/>
<path transform="matrix(1,0,0,-1,445.1067,675.4854)" d="M0 0H-48.513V-14.237H-32.853V-74.47H-15.549V-14.237H0Z" fill="#179daf"/>
<path transform="matrix(1,0,0,-1,464.1364,722.251)" d="M0 0 5.498 24.867 10.884 0ZM16.239 46.762H-4.354L-22.642-27.711H-6.101L-2.955-13.363H13.792L16.89-27.711H34.639Z" fill="#179daf"/>
<path transform="matrix(1,0,0,-1,504.9009,675.4854)" d="M0 0V-74.47H39.425V-60.233H17.304V0Z" fill="#179daf"/>
<path transform="matrix(1,0,0,-1,593.9357,745.192)" d="M0 0C1.971 1.715 3.413 3.651 4.327 5.804 5.239 7.957 5.695 10.166 5.695 12.431V20.863C5.695 23.491 5.165 25.827 4.108 27.872 3.048 29.916 1.604 31.65-.219 33.073-2.045 34.498-4.125 35.683-6.461 36.633L-23.765 43.643C-24.204 43.933-24.696 44.281-25.244 44.682-25.791 45.083-26.229 45.614-26.557 46.271-26.885 46.927-27.05 47.731-27.05 48.679V50.87C-27.05 51.965-26.85 52.877-26.448 53.608-26.047 54.337-25.517 54.958-24.859 55.47-24.204 55.98-23.4 56.346-22.449 56.565-21.503 56.784-20.517 56.894-19.495 56.894-18.398 56.894-17.358 56.784-16.372 56.565-15.387 56.346-14.566 55.98-13.908 55.47-13.25 54.958-12.757 54.337-12.43 53.608-12.102 52.877-11.937 51.965-11.937 50.87V46.38H4.928V52.512C4.928 54.775 4.527 56.984 3.723 59.139 2.92 61.291 1.604 63.227-.219 64.943-2.045 66.657-4.527 68.026-7.666 69.05-10.806 70.071-14.711 70.583-19.384 70.583-24.13 70.583-28.09 70.071-31.266 69.05-34.442 68.026-36.924 66.657-38.713 64.943-40.502 63.227-41.778 61.291-42.547 59.139-43.314 56.984-43.696 54.775-43.696 52.512V45.504C-43.696 43.533-43.314 41.597-42.547 39.7-41.778 37.8-40.704 36.14-39.317 34.717-37.929 33.293-36.323 32.215-34.497 31.487L-19.384 24.806C-18.07 24.221-16.794 23.618-15.552 22.999-14.31 22.378-13.307 21.63-12.538 20.754-11.772 19.878-11.39 18.818-11.39 17.577V14.183C-11.39 13.087-11.609 12.157-12.045 11.39-12.484 10.623-13.088 9.984-13.854 9.474-14.62 8.962-15.534 8.598-16.592 8.378-17.651 8.159-18.726 8.049-19.822 8.049-21.064 8.049-22.176 8.159-23.161 8.378-24.147 8.598-25.044 8.962-25.845 9.474-26.651 9.984-27.252 10.623-27.651 11.39-28.055 12.157-28.255 13.087-28.255 14.183V21.739H-45.12V12.431C-45.12 10.166-44.681 7.957-43.807 5.804-42.929 3.651-41.505 1.715-39.534 0-37.562-1.716-34.955-3.085-31.705-4.107-28.457-5.128-24.46-5.639-19.711-5.639-15.042-5.639-11.079-5.128-7.829-4.107-4.581-3.085-1.971-1.716 0 0" fill="#179daf"/>
<path transform="matrix(1,0,0,-1,647.9243,678.77029)" d="M0 0C-1.461 1.313-3.447 2.335-5.968 3.065-8.487 3.795-11.717 4.161-15.66 4.161-19.529 4.161-22.723 3.795-25.241 3.065-27.762 2.335-29.75 1.313-31.212 0-32.673-1.315-33.713-2.812-34.331-4.491-34.952-6.17-35.263-8.032-35.263-10.076V-57.824C-35.263-59.869-34.952-61.731-34.331-63.409-33.713-65.09-32.673-66.586-31.212-67.899-29.75-69.214-27.762-70.238-25.241-70.966-22.723-71.695-19.529-72.061-15.66-72.061-11.717-72.061-8.487-71.695-5.968-70.966-3.447-70.238-1.461-69.214 0-67.899 1.461-66.586 2.481-65.09 3.068-63.409 3.652-61.731 3.943-59.869 3.943-57.824V-49.611H.986V-57.495C.986-59.321 .729-60.945 .219-62.369-.291-63.793-1.168-65.016-2.408-66.037-3.649-67.061-5.365-67.863-7.555-68.447-9.746-69.033-12.447-69.323-15.66-69.323-18.873-69.323-21.557-69.033-23.708-68.447-25.862-67.863-27.56-67.061-28.802-66.037-30.044-65.016-30.919-63.793-31.429-62.369-31.941-60.945-32.195-59.321-32.195-57.495V-10.404C-32.195-8.58-31.941-6.955-31.429-5.531-30.919-4.108-30.044-2.886-28.802-1.862-27.56-.84-25.862-.038-23.708 .547-21.557 1.131-18.873 1.423-15.66 1.423-12.447 1.423-9.746 1.131-7.555 .547-5.365-.038-3.649-.84-2.408-1.862-1.168-2.886-.291-4.108 .219-5.531 .729-6.955 .986-8.58 .986-10.404V-17.084H3.943V-10.076C3.943-8.032 3.652-6.17 3.068-4.491 2.481-2.812 1.461-1.315 0 0" fill="#034587"/>
<path transform="matrix(1,0,0,-1,703.6674,749.95547)" d="M0 0V74.47H-3.065V41.616H-36.798V74.47H-39.864V0H-36.798V38.878H-3.065V0Z" fill="#034587"/>
<path transform="matrix(1,0,0,-1,723.4821,722.7912)" d="M0 0 12.267 42.711 24.549 0ZM10.519 47.303-10.725-27.171H-7.881L-.779-2.638H25.296L32.319-27.171H35.385L14.03 47.303Z" fill="#034587"/>
<path transform="matrix(1,0,0,-1,805.5135,675.4854)" d="M0 0H-3.613L-30.992-35.702H-34.824V0H-37.781V-74.47H-34.824V-38.33H-30.882L-.875-74.47H2.957L-28.255-36.797Z" fill="#034587"/>
<path transform="matrix(1,0,0,-1,836.0739,715.56167)" d="M0 0H-16.874V37.34H0C3.353 37.34 6.133 37.054 8.326 36.466 10.503 35.878 12.251 35.052 13.522 34.003 14.793 32.939 15.699 31.715 16.207 30.333 16.716 28.935 16.97 27.377 16.97 25.614V11.71C16.97 9.454 16.477 7.436 15.492 5.688 14.507 3.941 12.775 2.542 10.296 1.525 7.802 .508 4.37 0 0 0M21.578-34.4 6.642-2.304C8.755-2.002 10.566-1.525 12.044-.874 14.888 .365 16.922 2.05 18.114 4.211 19.321 6.356 19.925 8.787 19.925 11.488V25.836C19.925 27.886 19.623 29.745 19.004 31.429 18.384 33.098 17.304 34.607 15.762 35.91 14.237 37.229 12.187 38.246 9.629 38.977 7.071 39.707 3.861 40.073 0 40.073H-19.83V-34.4H-16.874V-2.749H0C1.239-2.749 2.415-2.701 3.527-2.638L18.177-34.4Z" fill="#034587"/>
<path transform="matrix(1,0,0,-1,872.9689,722.7912)" d="M0 0 12.267 42.711 24.549 0ZM32.319-27.171H35.386L14.03 47.303H10.519L-10.725-27.171H-7.881L-.779-2.638H25.296Z" fill="#034587"/>
</g>
</g>
</svg>
