<svg xmlns="http://www.w3.org/2000/svg" viewBox="0 0 100 100" width="64" height="64">
  <rect width="100" height="100" rx="16" fill="#0a0514"/>
  <path d="M10,10 L90,10 L90,20 L20,20 L20,90 L10,90 Z M90,10 L90,90 L80,90 L80,20 L90,20 Z" fill="#25A9BA"/>
  <path d="M10,90 L90,90 L90,80 L20,80 L20,90 Z" fill="#25A9BA"/>
  <path d="M15,15 L85,15 L85,85 L15,85 Z" stroke="#14467D" stroke-width="4" fill="none"/>
  <path d="M50,25 L65,40 L55,40 L50,35 L45,40 L35,40 Z" fill="#14467D"/>
  <path d="M50,75 L35,60 L45,60 L50,65 L55,60 L65,60 Z" fill="#14467D"/>
  <path d="M25,50 L40,35 L40,45 L35,50 L40,55 L40,65 Z" fill="#25A9BA"/>
  <path d="M75,50 L60,65 L60,55 L65,50 L60,45 L60,35 Z" fill="#25A9BA"/>
</svg>
